<svg width="573.2650024414062px" height="144.8650390625px" xmlns="http://www.w3.org/2000/svg" viewBox="-36.63250122070309 2.5674804687500057 573.2650024414062 144.8650390625" style="background: rgba(0, 0, 0, 0);" preserveAspectRatio="xMidYMid"><defs><linearGradient id="editing-sticker-gradient" x1="0.7194061104857512" y1="0.7045995080187495" x2="0.2805938895142488" y2="0.2954004919812505"><stop offset="0" stop-color="#f10000"></stop><stop offset="1" stop-color="#012ae5"></stop></linearGradient><filter id="editing-sticker" x="-100%" y="-100%" width="300%" height="300%"><feMorphology operator="erode" radius="1" in="SourceAlpha" result="alpha-erode"></feMorphology><feConvolveMatrix order="3,3" divisor="1" kernelMatrix="0 1 0 1 1 1 0 1 0" in="alpha-erode" result="alpha-round"></feConvolveMatrix><feMorphology operator="dilate" radius="3.5" in="alpha-round" result="dilate-shadow"></feMorphology><feGaussianBlur in="dilate-shadow" stdDeviation="1.5" result="shadow"></feGaussianBlur><feFlood flood-color="#fff" result="flood-sticker"></feFlood><feComposite operator="in" in="flood-sticker" in2="alpha-round" result="comp-sticker"></feComposite><feMorphology operator="dilate" radius="3" in="comp-sticker" result="morph-sticker"></feMorphology><feConvolveMatrix order="3,3" divisor="1" kernelMatrix="0 1 0 1 1 1 0 1 0" in="morph-sticker" result="sticker"></feConvolveMatrix><feMerge><feMergeNode in="shadow"></feMergeNode><feMergeNode in="sticker"></feMergeNode><feMergeNode in="SourceGraphic"></feMergeNode></feMerge></filter></defs><g filter="url(#editing-sticker)"><g transform="translate(51.78500735759735, 102.03499984741211)"><path d="M50.87-50.41L50.87-41.27L30.73-41.27L30.73 0L21.59 0L21.59-41.27L1.41-41.27L1.41-50.41L50.87-50.41ZM65.85-54.07L65.85-45.81L56.71-45.81L56.71-54.07L65.85-54.07ZM65.85-38.00L65.85 0L56.71 0L56.71-38.00L65.85-38.00ZM111.41-9.14L111.41 0L86.63 0L86.63 0Q84.73 0 82.48-0.67L82.48-0.67L82.48-0.67Q80.23-1.34 78.31-2.87L78.31-2.87L78.31-2.87Q76.39-4.39 75.11-6.84L75.11-6.84L75.11-6.84Q73.83-9.28 73.83-12.83L73.83-12.83L73.83-25.21L73.83-25.21Q73.83-26.51 74.13-27.95L74.13-27.95L74.13-27.95Q74.43-29.39 75.06-30.81L75.06-30.81L75.06-30.81Q75.69-32.24 76.69-33.54L76.69-33.54L76.69-33.54Q77.70-34.84 79.12-35.82L79.12-35.82L79.12-35.82Q80.54-36.81 82.41-37.41L82.41-37.41L82.41-37.41Q84.27-38.00 86.63-38.00L86.63-38.00L111.41-38.00L111.41-28.86L86.63-28.86L86.63-28.86Q84.83-28.86 83.90-27.95L83.90-27.95L83.90-27.95Q82.97-27.04 82.97-25.14L82.97-25.14L82.97-12.83L82.97-12.83Q82.97-11.04 83.92-10.09L83.92-10.09L83.92-10.09Q84.87-9.14 86.70-9.14L86.70-9.14L111.41-9.14ZM165.55-50.41L165.55-41.27L145.41-41.27L145.41 0L136.27 0L136.27-41.27L116.09-41.27L116.09-50.41L165.55-50.41ZM204.57-25.42L204.57-12.59L204.57-12.59Q204.57-10.69 203.91-8.49L203.91-8.49L203.91-8.49Q203.24-6.29 201.74-4.41L201.74-4.41L201.74-4.41Q200.25-2.53 197.84-1.27L197.84-1.27L197.84-1.27Q195.43 0 191.99 0L191.99 0L175.50 0L175.50 0Q173.60 0 171.40-0.67L171.40-0.67L171.40-0.67Q169.21-1.34 167.33-2.83L167.33-2.83L167.33-2.83Q165.45-4.32 164.18-6.73L164.18-6.73L164.18-6.73Q162.91-9.14 162.91-12.59L162.91-12.59L162.91-12.59Q162.91-14.48 163.58-16.70L163.58-16.70L163.58-16.70Q164.25-18.91 165.74-20.79L165.74-20.79L165.74-20.79Q167.24-22.68 169.65-23.94L169.65-23.94L169.65-23.94Q172.05-25.21 175.50-25.21L175.50-25.21L191.99-25.21L191.99-16.49L175.50-16.49L175.50-16.49Q173.64-16.49 172.62-15.35L172.62-15.35L172.62-15.35Q171.60-14.20 171.60-12.52L171.60-12.52L171.60-12.52Q171.60-10.72 172.78-9.72L172.78-9.72L172.78-9.72Q173.95-8.72 175.57-8.72L175.57-8.72L191.99-8.72L191.99-8.72Q193.85-8.72 194.87-9.84L194.87-9.84L194.87-9.84Q195.89-10.97 195.89-12.66L195.89-12.66L195.89-25.42L195.89-25.42Q195.89-27.21 194.78-28.27L194.78-28.27L194.78-28.27Q193.68-29.32 191.99-29.32L191.99-29.32L171.91-29.32L171.91-38.00L191.99-38.00L191.99-38.00Q193.89-38.00 196.08-37.34L196.08-37.34L196.08-37.34Q198.28-36.67 200.16-35.17L200.16-35.17L200.16-35.17Q202.04-33.68 203.31-31.27L203.31-31.27L203.31-31.27Q204.57-28.86 204.57-25.42L204.57-25.42ZM249.19-9.14L249.19 0L224.40 0L224.40 0Q222.50 0 220.25-0.67L220.25-0.67L220.25-0.67Q218.00-1.34 216.09-2.87L216.09-2.87L216.09-2.87Q214.17-4.39 212.89-6.84L212.89-6.84L212.89-6.84Q211.61-9.28 211.61-12.83L211.61-12.83L211.61-25.21L211.61-25.21Q211.61-26.51 211.90-27.95L211.90-27.95L211.90-27.95Q212.20-29.39 212.84-30.81L212.84-30.81L212.84-30.81Q213.47-32.24 214.47-33.54L214.47-33.54L214.47-33.54Q215.47-34.84 216.90-35.82L216.90-35.82L216.90-35.82Q218.32-36.81 220.18-37.41L220.18-37.41L220.18-37.41Q222.05-38.00 224.40-38.00L224.40-38.00L249.19-38.00L249.19-28.86L224.40-28.86L224.40-28.86Q222.61-28.86 221.68-27.95L221.68-27.95L221.68-27.95Q220.75-27.04 220.75-25.14L220.75-25.14L220.75-12.83L220.75-12.83Q220.75-11.04 221.70-10.09L221.70-10.09L221.70-10.09Q222.64-9.14 224.47-9.14L224.47-9.14L249.19-9.14ZM303.33-50.41L303.33-41.27L283.18-41.27L283.18 0L274.04 0L274.04-41.27L253.86-41.27L253.86-50.41L303.33-50.41ZM346.36-25.21L346.36-12.83L346.36-12.83Q346.36-10.48 345.76-8.60L345.76-8.60L345.76-8.60Q345.16-6.71 344.18-5.29L344.18-5.29L344.18-5.29Q343.20-3.87 341.89-2.87L341.89-2.87L341.89-2.87Q340.59-1.86 339.17-1.23L339.17-1.23L339.17-1.23Q337.75-0.60 336.29-0.30L336.29-0.30L336.29-0.30Q334.83 0 333.53 0L333.53 0L317.04 0L317.04 0Q315.14 0 312.89-0.67L312.89-0.67L312.89-0.67Q310.64-1.34 308.72-2.87L308.72-2.87L308.72-2.87Q306.81-4.39 305.53-6.84L305.53-6.84L305.53-6.84Q304.24-9.28 304.24-12.83L304.24-12.83L304.24-25.21L304.24-25.21Q304.24-28.72 305.53-31.17L305.53-31.17L305.53-31.17Q306.81-33.61 308.72-35.14L308.72-35.14L308.72-35.14Q310.64-36.67 312.89-37.34L312.89-37.34L312.89-37.34Q315.14-38.00 317.04-38.00L317.04-38.00L333.53-38.00L333.53-38.00Q337.04-38.00 339.50-36.74L339.50-36.74L339.50-36.74Q341.96-35.47 343.48-33.56L343.48-33.56L343.48-33.56Q344.99-31.64 345.67-29.39L345.67-29.39L345.67-29.39Q346.36-27.14 346.36-25.21L346.36-25.21ZM337.22-12.83L337.22-25.14L337.22-25.14Q337.22-27.04 336.27-27.95L336.27-27.95L336.27-27.95Q335.32-28.86 333.53-28.86L333.53-28.86L317.11-28.86L317.11-28.86Q315.28-28.86 314.33-27.93L314.33-27.93L314.33-27.93Q313.38-27 313.38-25.21L313.38-25.21L313.38-12.83L313.38-12.83Q313.38-11.04 314.33-10.09L314.33-10.09L314.33-10.09Q315.28-9.14 317.11-9.14L317.11-9.14L333.53-9.14L333.53-9.14Q335.39-9.14 336.30-10.09L336.30-10.09L336.30-10.09Q337.22-11.04 337.22-12.83L337.22-12.83ZM395.02-25.42L395.02-25.42L395.02-25.42Q395.02-23.52 394.35-21.32L394.35-21.32L394.35-21.32Q393.68-19.13 392.19-17.24L392.19-17.24L392.19-17.24Q390.69-15.36 388.28-14.10L388.28-14.10L388.28-14.10Q385.88-12.83 382.43-12.83L382.43-12.83L365.94-12.83L365.94-21.52L382.43-21.52L382.43-21.52Q384.29-21.52 385.31-22.66L385.31-22.66L385.31-22.66Q386.33-23.80 386.33-25.49L386.33-25.49L386.33-25.49Q386.33-27.28 385.19-28.30L385.19-28.30L385.19-28.30Q384.05-29.32 382.43-29.32L382.43-29.32L365.94-29.32L365.94-29.32Q364.08-29.32 363.06-28.18L363.06-28.18L363.06-28.18Q362.04-27.04 362.04-25.35L362.04-25.35L362.04-12.59L362.04-12.59Q362.04-10.76 363.18-9.74L363.18-9.74L363.18-9.74Q364.32-8.72 366.01-8.72L366.01-8.72L382.43-8.72L382.43 0L365.94 0L365.94 0Q364.04 0 361.85-0.67L361.85-0.67L361.85-0.67Q359.65-1.34 357.77-2.83L357.77-2.83L357.77-2.83Q355.89-4.32 354.62-6.73L354.62-6.73L354.62-6.73Q353.36-9.14 353.36-12.59L353.36-12.59L353.36-25.42L353.36-25.42Q353.36-27.32 354.02-29.51L354.02-29.51L354.02-29.51Q354.69-31.71 356.19-33.59L356.19-33.59L356.19-33.59Q357.68-35.47 360.09-36.74L360.09-36.74L360.09-36.74Q362.50-38.00 365.94-38.00L365.94-38.00L382.43-38.00L382.43-38.00Q384.33-38.00 386.53-37.34L386.53-37.34L386.53-37.34Q388.72-36.67 390.60-35.17L390.60-35.17L390.60-35.17Q392.48-33.68 393.75-31.27L393.75-31.27L393.75-31.27Q395.02-28.86 395.02-25.42Z" fill="url(#editing-sticker-gradient)" stroke="#1e1d1d" stroke-width="3"></path></g></g><style>text {
  font-size: 64px;
  font-family: Arial Black;
  dominant-baseline: central;
  text-anchor: middle;
}</style></svg>